<svg xmlns="http://www.w3.org/2000/svg" width="16.011" height="21.349" viewBox="0 0 16.011 21.349">
  <g id="fire" transform="translate(-64 0)">
    <g id="Grupo_2" data-name="Grupo 2" transform="translate(64 0)">
      <path id="Caminho_4" data-name="Caminho 4" d="M79.966,12.5a12.583,12.583,0,0,0-3.035-6.94C75.72,3.93,74.674,2.522,74.674.446a.445.445,0,0,0-.242-.4.441.441,0,0,0-.462.034A11.311,11.311,0,0,0,69.8,6.118a19.7,19.7,0,0,0-.457,4.511c-1.814-.387-2.225-3.1-2.229-3.13a.445.445,0,0,0-.635-.337c-.1.046-2.335,1.184-2.465,5.727-.009.151-.01.3-.01.454a8.015,8.015,0,0,0,8.006,8.005.062.062,0,0,0,.018,0h.006a8.015,8.015,0,0,0,7.982-8.005C80.011,13.121,79.966,12.5,79.966,12.5Zm-7.96,7.959a2.763,2.763,0,0,1-2.669-2.843c0-.053,0-.107,0-.173a3.605,3.605,0,0,1,.281-1.412,1.624,1.624,0,0,0,1.469,1.064.445.445,0,0,0,.445-.445,8.9,8.9,0,0,1,.171-2.023,4.3,4.3,0,0,1,.9-1.705,5.731,5.731,0,0,0,.917,1.682,5.067,5.067,0,0,1,1.14,2.777c.006.076.011.153.011.236A2.763,2.763,0,0,1,72.006,20.459Z" transform="translate(-64 0)" fill="#f67d12"/>
    </g>
  </g>
</svg>
